<svg id="bold" enable-background="new 0 0 24 24" height="512" viewBox="0 0 24 24" width="512" xmlns="http://www.w3.org/2000/svg"><g><path d="m10.25 13h-3.5c-.414 0-.75-.336-.75-.75v-3.5c0-.414.336-.75.75-.75h3.5c.414 0 .75.336.75.75v3.5c0 .414-.336.75-.75.75z"/></g><g><path d="m10.25 20h-3.5c-.414 0-.75-.336-.75-.75v-3.5c0-.414.336-.75.75-.75h3.5c.414 0 .75.336.75.75v3.5c0 .414-.336.75-.75.75z"/></g><g><path d="m17.25 13h-3.5c-.414 0-.75-.336-.75-.75v-3.5c0-.414.336-.75.75-.75h3.5c.414 0 .75.336.75.75v3.5c0 .414-.336.75-.75.75z"/></g><g><path d="m17.25 20h-3.5c-.414 0-.75-.336-.75-.75v-3.5c0-.414.336-.75.75-.75h3.5c.414 0 .75.336.75.75v3.5c0 .414-.336.75-.75.75z"/></g><g><path d="m21 1h-18c-1.654 0-3 1.346-3 3v16c0 1.654 1.346 3 3 3h18c1.654 0 3-1.346 3-3v-16c0-1.654-1.346-3-3-3zm0 20h-18c-.551 0-1-.448-1-1v-14h20v14c0 .552-.449 1-1 1z"/></g></svg>