<svg id="Layer_1" enable-background="new 0 0 499.932 499.932" height="512" viewBox="0 0 499.932 499.932" width="512" xmlns="http://www.w3.org/2000/svg"><path d="m212.346 235c-8.836 0-16-7.164-16-16v-5.824c0-8.836 7.164-16 16-16s16 7.164 16 16v5.824c0 8.836-7.163 16-16 16zm91.239-16v-5.824c0-8.836-7.163-16-16-16s-16 7.164-16 16v5.824c0 8.836 7.163 16 16 16s16-7.164 16-16zm-37.559-172.37c-.04.45-.07.46-.08 0zm-32.12 0h.08c-.01.46-.04.45-.08 0zm159.73 160.74c0 72.494-56.097 141-146.34 141-77.75 0-141-63.25-141-141v-20.37c0-73.24 56.12-133.61 127.61-140.37.04.45.07.46.08 0h-.08c-.7-8.18-7.58-14.63-15.94-14.63-8.84 0-16-7.16-16-16s7.16-16 16-16c12.29 0 23.51 4.63 32 12.25 8.49-7.62 19.71-12.25 32-12.25 8.84 0 16 7.16 16 16s-7.16 16-16 16c-8.36 0-15.24 6.45-15.94 14.63h-.08c.01.46.04.45.08 0 71.06 6.72 126.93 66.41 127.6 139.05.016.261.01 21.428.01 21.69zm-32-12.42c-71.764-41.054-156.627-37.203-223.34 3.68v8.74c0 60.1 48.9 109 109 109h5.34c60.1 0 109-48.9 109-109zm-127.73-148.32c.04.45.07.46.08 0zm32.04 0c.01.46.04.45.08 0zm-15.796 365.869c22.812-.134 36.91-23.769 27.535-43.636-1.62-3.434-5.109-5.598-8.907-5.598h-37.625c-3.788 0-7.276 2.151-8.895 5.576-9.579 20.26 5.369 43.791 27.892 43.658zm75.997-40.105c-6.528-2.704-13.572 2.262-13.554 9.329.084 34.586-28.032 62.778-62.627 62.778-34.565 0-62.711-28.161-62.626-62.778.017-7.066-7.026-12.032-13.554-9.329-43.772 18.128-74.643 61.298-74.64 111.547.001 8.831 7.169 15.992 16 15.992h269.641c8.831 0 15.999-7.16 16-15.992.003-50.249-30.868-93.419-74.64-111.547z"/></svg>